PathFileType	4	(X/Y/Z)	c:/Users/goper/Files/vsCode/490R/osim_files/C15/C15_Fast_03.trc
DataRate	CameraRate	NumFrames	NumMarkers	Units                	OrigDataRate	OrigDataStartFrame	OrigNumFrames
250.00	250.00	10	36	mm	250.0	1436	2296
                Frame#	Time	LPSIS			LASIS			LTH1			LTH2			LTH3			LTH4			LLFE			LMFE			LSH1			LSH2			LSH3			LSH4			LLMAL			LMMAL			LCAL			LMTP5			LTOE			LMTP1			RPSIS			RASIS			RTH1			RTH2			RTH3			RTH4			RLFE			RMFE			RSH1			RSH2			RSH3			RSH4			RLMAL			RMMAL			RCAL			RMTP1			RTOE			RMTP5		
		X1	Y1	Z1	X2	Y2	Z2	X3	Y3	Z3	X4	Y4	Z4	X5	Y5	Z5	X6	Y6	Z6	X7	Y7	Z7	X8	Y8	Z8	X9	Y9	Z9	X10	Y10	Z10	X11	Y11	Z11	X12	Y12	Z12	X13	Y13	Z13	X14	Y14	Z14	X15	Y15	Z15	X16	Y16	Z16	X17	Y17	Z17	X18	Y18	Z18	X19	Y19	Z19	X20	Y20	Z20	X21	Y21	Z21	X22	Y22	Z22	X23	Y23	Z23	X24	Y24	Z24	X25	Y25	Z25	X26	Y26	Z26	X27	Y27	Z27	X28	Y28	Z28	X29	Y29	Z29	X30	Y30	Z30	X31	Y31	Z31	X32	Y32	Z32	X33	Y33	Z33	X34	Y34	Z34	X35	Y35	Z35	X36	Y36	Z36

1436	5.74000	-1793.47461	997.90015	334.41583	-1951.89502	970.29767	420.97937	-1774.09070	603.22864	468.03760	-1763.82861	558.98291	453.88895	-1825.85339	598.60992	466.56384	-1816.21667	554.53644	457.21332	-1755.79065	483.20001	437.16934	-1767.85510	464.23962	319.42587	-1651.77576	410.77213	444.47443	-1628.86316	370.70001	444.88730	-1702.46423	377.66751	445.29269	-1674.75928	342.28015	447.40598	-1528.30737	129.03496	376.39240	-1558.40747	148.29404	288.71609	-1460.46790	121.79256	332.09711	-1622.51135	40.47303	392.20908	-1680.22620	57.16568	327.81833	-1635.22302	36.47096	272.20581	-1810.40869	993.02301	214.57036	-1971.93530	969.05365	170.82922	-2028.76318	612.57019	109.80116	-2048.45923	571.73425	121.71903	-2081.51953	636.25275	129.04971	-2095.17383	591.07135	134.14932	-2093.11792	495.20587	157.04001	-2078.04858	473.36194	273.87366	-2055.79565	370.95218	134.29242	-2072.78662	330.27701	131.63675	-2116.26807	386.92139	138.77193	-2123.42432	345.40552	133.92128	-2191.38647	91.10017	193.02921	-2205.58179	124.04448	280.42462	-2140.41919	48.71063	238.34778	-2332.97095	99.52041	283.17514	-2358.13672	133.72064	232.01173	-2320.40991	76.11471	171.31644
1437	5.74400	-1799.35205	997.16638	334.04642	-1957.98169	969.46283	420.79648	-1779.60803	602.42932	467.76245	-1769.58167	558.13727	453.54422	-1831.31836	597.77899	466.39499	-1821.88184	553.55487	457.12305	-1761.18604	482.48404	437.17896	-1773.32373	463.28271	319.46579	-1656.51331	411.03021	444.52878	-1632.98035	370.98984	444.82770	-1706.88281	377.34799	445.36691	-1678.75940	342.26746	447.44122	-1529.89734	130.69931	376.57681	-1560.26831	149.55431	288.93799	-1462.12390	124.28677	332.12311	-1622.82410	40.58725	392.21606	-1680.53430	57.05610	327.83322	-1635.40955	36.51157	272.28430	-1816.45850	992.49316	214.21297	-1978.03076	968.47650	170.61136	-2035.32581	612.11218	110.31478	-2055.04175	571.38550	122.54370	-2088.13745	635.90906	129.02339	-2101.82056	590.80939	134.55461	-2099.75757	494.92621	157.64450	-2085.33008	473.67908	274.31369	-2061.25415	370.88190	134.89877	-2077.63403	330.10217	132.35237	-2121.98120	386.09686	139.65245	-2128.45679	344.57751	134.77185	-2193.17212	90.56059	193.68582	-2207.64600	122.21915	280.78064	-2141.54980	49.17103	238.81766	-2335.00220	95.30963	283.84207	-2360.73584	129.35800	232.95140	-2322.54883	72.35992	172.63138
1438	5.74800	-1805.45874	996.56134	333.59833	-1963.39478	968.50043	420.43942	-1785.27185	601.60675	467.47748	-1775.32996	557.49713	453.65457	-1836.97607	596.90039	466.24594	-1827.34570	552.83673	457.05286	-1766.79077	481.70917	437.22647	-1778.97717	462.48038	319.44226	-1661.51562	411.41846	444.60236	-1637.29004	371.53876	444.86688	-1711.34985	377.02814	445.47562	-1682.92358	342.35590	447.52505	-1531.52087	132.52756	376.75253	-1562.38269	150.84436	289.14716	-1463.86914	126.95768	332.28754	-1623.20007	40.68832	392.23752	-1680.89111	56.96746	327.84042	-1635.61292	36.59071	272.33408	-1822.57275	992.05804	213.85158	-1984.13733	967.97357	170.35959	-2041.80859	611.69208	110.86110	-2062.28906	570.73682	123.62472	-2094.81274	635.57605	128.97171	-2108.36621	590.44135	134.89238	-2106.48633	494.72433	158.15776	-2092.40015	473.95538	274.59311	-2066.54956	371.01395	135.61147	-2082.64233	329.75958	133.09138	-2127.51318	385.34402	140.51457	-2133.91797	343.47339	135.77740	-2195.43896	90.26610	194.18315	-2210.21045	120.84200	281.86658	-2142.83154	49.98564	239.07460	-2336.97046	91.29636	284.63925	-2363.69165	125.26524	233.98026	-2325.12671	70.15098	173.22810
1439	5.75200	-1811.54785	995.86395	333.23541	-1969.37109	967.74097	420.21088	-1791.03052	600.82184	467.24606	-1780.98059	556.63367	453.38998	-1842.83472	596.05438	466.13101	-1833.38074	551.87262	457.00549	-1772.49622	480.91052	437.35663	-1784.97131	461.42526	319.63702	-1666.60620	411.76138	444.72858	-1642.14075	372.36469	445.09030	-1716.06042	376.88348	445.60834	-1687.12732	342.43063	447.68347	-1533.34790	134.31631	376.96451	-1564.54871	152.21382	289.41754	-1465.62000	129.87148	332.20435	-1623.62610	40.83852	392.23569	-1681.24829	56.84414	327.81302	-1635.79956	36.66930	272.39462	-1828.74915	991.62317	213.47986	-1990.30737	967.57574	170.10406	-2048.15161	611.33875	111.32556	-2067.81641	570.62195	124.12898	-2101.40015	635.19427	128.95847	-2114.86157	590.08160	135.24153	-2112.86572	494.47168	158.64926	-2099.30835	474.26572	274.67218	-2071.86914	370.99988	136.23193	-2087.34961	329.74884	133.89543	-2132.82935	384.69424	141.22064	-2138.82324	342.85886	136.58710	-2197.94458	90.12621	194.61847	-2213.36694	119.89256	282.35559	-2144.45239	51.10038	239.38029	-2339.03662	87.50531	285.45322	-2366.75562	121.10911	235.06035	-2325.88647	66.15764	173.57779
1440	5.75600	-1816.85950	995.43262	332.74805	-1975.41235	967.08203	419.94742	-1796.92383	600.00983	466.98767	-1786.72424	555.67004	453.10754	-1848.73547	595.28162	466.00763	-1839.08569	551.13586	457.02512	-1778.23450	480.17126	437.48999	-1790.87903	460.50140	319.64340	-1671.85791	412.15695	444.81473	-1646.90613	372.93240	445.19366	-1720.72546	376.58475	445.80881	-1691.52759	342.58838	447.88187	-1535.26245	136.27834	377.18518	-1566.88269	153.66078	289.66061	-1467.51221	132.86461	332.34589	-1624.06311	40.96877	392.23590	-1681.66602	56.71543	327.76675	-1636.02747	36.76818	272.46652	-1834.87317	991.35419	213.08492	-1996.54004	967.25208	169.90381	-2054.46484	611.05756	111.76979	-2074.10547	570.33984	124.80703	-2107.83667	634.84888	128.96217	-2121.16016	589.75031	135.56700	-2119.25439	494.33600	158.89079	-2105.99072	474.50296	274.63629	-2077.12427	371.10159	136.79330	-2092.44653	329.57220	134.56531	-2138.16162	384.24619	141.84398	-2143.85059	342.38541	137.37314	-2200.42212	90.12930	195.02118	-2216.38184	118.99783	282.50027	-2146.14844	52.25607	239.72015	-2341.11792	83.74133	286.33487	-2370.07007	116.94612	236.15222	-2327.63525	63.27912	174.50282
1441	5.76000	-1823.42151	994.67963	332.65161	-1981.51074	966.39252	419.70239	-1802.94238	599.13062	466.82013	-1792.67908	554.70197	452.99344	-1854.71851	594.35309	465.98318	-1845.11401	550.25055	457.05804	-1784.30664	479.37631	437.59927	-1797.07605	459.44675	319.73962	-1677.05872	412.51349	444.88571	-1652.11768	374.49832	445.17072	-1725.71497	376.42136	446.06287	-1695.96265	342.71420	448.12061	-1537.33337	138.24791	377.45972	-1569.30774	155.06448	290.00092	-1469.86646	135.72668	332.58072	-1624.21106	40.87023	392.02225	-1681.50903	56.00441	328.22656	-1636.31946	36.87059	272.55560	-1841.01575	991.09906	212.78687	-2002.57568	967.05640	169.73352	-2060.65063	610.98907	112.08121	-2080.08691	570.26276	125.34427	-2114.23779	634.60266	129.02789	-2127.34229	589.53839	135.95737	-2125.47827	494.27554	159.00482	-2112.36206	474.65567	274.52841	-2082.31958	371.26541	137.33382	-2097.02661	329.82388	135.27682	-2143.71631	384.06943	142.22643	-2149.05005	342.11102	138.02043	-2202.89551	90.22775	195.31902	-2219.46533	118.32806	282.94153	-2147.35791	53.71769	239.92856	-2343.10864	80.04739	287.36447	-2373.13525	112.67258	237.26581	-2329.10718	60.56634	175.28337
1442	5.76400	-1829.54968	994.14532	332.39877	-1987.72180	965.74487	419.48563	-1809.10437	598.23138	466.63409	-1798.90796	553.75623	453.03549	-1860.83521	593.36505	466.01917	-1851.30225	549.19287	457.40994	-1790.43237	478.56821	437.78677	-1803.37708	458.35376	319.92169	-1682.66980	412.93973	445.03879	-1657.11060	375.25546	445.27774	-1730.73975	376.17700	446.31216	-1700.55225	342.89117	448.32315	-1539.55347	140.28824	377.77246	-1571.97791	156.56308	290.37186	-1472.08777	139.10646	332.58063	-1624.62561	40.95640	392.01038	-1682.02087	55.72306	328.29703	-1636.64124	36.96528	272.63187	-1847.10962	990.95386	212.50536	-2008.63306	967.01776	169.61818	-2066.78320	611.13586	112.34478	-2086.62256	570.11334	126.09165	-2120.50073	634.51990	129.03473	-2133.37378	589.44849	136.14099	-2131.11450	494.32864	158.96623	-2118.30518	474.76230	274.31714	-2087.85303	371.61465	137.71550	-2102.77393	329.88785	135.96709	-2149.30762	384.10211	142.39146	-2154.39380	342.18671	138.36879	-2204.96021	90.06636	195.48907	-2222.84912	118.36424	283.65036	-2148.57007	54.88197	239.98355	-2344.74829	76.62730	289.28433	-2375.95361	108.39277	238.35332	-2330.46411	57.95231	175.95023
1443	5.76800	-1835.28870	993.79565	332.07907	-1994.33228	965.17139	419.42053	-1815.33105	597.36609	466.41687	-1805.37036	552.81635	453.06622	-1867.10840	592.59930	465.94907	-1857.51245	548.36176	457.20734	-1796.65369	477.75275	437.95560	-1810.00330	457.12860	320.11557	-1688.31689	413.37384	445.14478	-1662.22729	376.03299	445.36038	-1735.83679	375.92099	446.56577	-1705.28088	343.04669	448.54230	-1541.90979	142.35135	378.12860	-1574.74890	158.04469	290.80743	-1474.70874	142.32848	332.74594	-1625.06152	41.10241	392.01685	-1682.47485	55.46045	328.33530	-1636.88733	37.12680	272.74692	-1853.13684	990.91217	212.31116	-2014.79822	967.14355	169.50789	-2072.88013	611.54590	112.53860	-2093.82886	569.91327	128.02538	-2126.66357	634.65021	129.01172	-2139.31934	589.47485	136.25882	-2138.15161	495.03302	158.51668	-2123.90625	474.88306	274.16574	-2093.58521	372.35968	138.06232	-2108.28882	330.41364	136.31425	-2155.27979	384.40875	142.32147	-2159.93970	342.32996	138.60292	-2205.24121	89.43954	196.47006	-2224.33716	116.88142	283.42654	-2149.42871	55.97263	239.79271	-2346.10352	73.13757	289.90894	-2378.30737	104.25955	239.18021	-2331.66309	55.35799	176.46283
1444	5.77200	-1841.83105	993.16351	332.10547	-2000.03870	964.47052	419.02094	-1821.66907	596.46973	466.24796	-1811.99194	551.86505	452.95486	-1873.43445	591.69623	466.00296	-1864.17810	547.43652	457.27277	-1803.16541	476.88553	438.13339	-1816.88892	455.83658	320.32816	-1694.19812	413.83926	445.30142	-1667.55701	376.84793	445.45590	-1741.19019	375.76660	446.81451	-1710.16064	343.30106	448.81055	-1544.45825	144.54276	378.49628	-1577.73621	159.58139	291.26373	-1477.47754	145.77866	332.97348	-1625.58875	41.31068	392.04004	-1682.94873	55.16306	328.37006	-1637.15283	37.27856	272.86261	-1859.13428	990.91266	212.21367	-2020.88452	967.38501	169.35370	-2078.91382	612.08118	112.66843	-2099.74951	570.39935	128.09361	-2132.85962	635.03973	128.95717	-2145.37622	589.81006	136.09882	-2144.07666	495.68951	158.35643	-2129.12842	475.16910	274.10309	-2099.61084	373.46750	138.11659	-2113.77441	331.51334	136.54010	-2161.39136	384.92923	142.23430	-2165.91870	342.71207	138.61511	-2206.77612	89.31482	196.37807	-2225.91089	116.02325	283.48355	-2150.18848	56.88121	239.60997	-2347.12012	70.18356	290.35681	-2380.32373	100.56332	239.78371	-2332.82202	52.74546	176.79323
1445	5.77600	-1848.11755	992.71295	332.17007	-2006.29651	963.85956	418.78757	-1828.17810	595.51416	466.07935	-1818.66565	550.92450	452.87247	-1880.06714	590.75128	466.11050	-1870.80334	546.55121	457.41180	-1809.95630	476.00552	438.44272	-1823.75623	454.64682	320.51999	-1700.32751	414.39572	445.39590	-1673.18982	377.73181	445.53885	-1746.73645	375.68579	447.08527	-1715.24341	343.59848	449.09192	-1547.30859	146.80309	378.93121	-1580.97253	161.18697	291.80099	-1480.49365	149.39842	333.23892	-1626.19592	41.56133	392.08597	-1683.53650	54.83947	328.40350	-1637.50659	37.48279	272.96402	-1865.09155	991.13623	212.24660	-2026.80396	967.71356	169.09392	-2085.03003	612.80219	112.71982	-2105.98511	571.06128	127.97728	-2139.17163	635.69598	128.76352	-2151.54419	590.44287	135.77977	-2150.32251	496.72183	158.33955	-2134.29443	475.74414	274.07532	-2105.46631	374.87845	137.81201	-2119.86768	332.58499	136.27843	-2167.68213	385.60699	142.05902	-2171.36011	343.30692	138.37650	-2209.55200	89.59904	195.16417	-2227.18726	115.24855	283.75891	-2150.96753	57.65962	239.38947	-2348.00854	67.79328	290.55048	-2381.96265	97.43687	240.08609	-2333.71875	50.35313	176.91394
